#N canvas 113 52 920 810 12;
#X obj 216 310 t b b;
#X obj 216 262 tgl 15 0 empty empty empty 0 -6 0 8 -262144 -1 -1 0
1;
#X obj 40 548 bng 15 250 50 0 empty empty empty 0 -6 0 8 -262144 -1
-1;
#X msg 66 254 0 \, destroy;
#X obj 32 282 gemwin;
#X msg 32 229 reset \, create \, 1;
#N canvas 510 193 994 722 structure 0;
#X obj 124 314 pd_lia \$0;
#X obj 213 373 pd_lia \$0;
#X obj 49 445 pd_lia \$0;
#X obj 198 502 pd_lia \$0;
#X obj 189 113 pd_lia \$0;
#X obj 69 161 pd_lia \$0;
#X obj 201 187 pd_lia \$0;
#X obj 279 598 pd_lia \$0;
#X obj 410 562 pd_lia \$0;
#X obj 580 585 pd_lia \$0;
#X obj 310 327 pd_lia \$0;
#X obj 388 330 pd_lia \$0;
#X obj 468 330 pd_lia \$0;
#X obj 338 427 pd_lia \$0;
#X obj 509 422 pd_lia \$0;
#X obj 304 26 pd_lia \$0;
#X obj 441 57 pd_lia \$0;
#X obj 347 129 pd_lia \$0;
#X obj 308 231 pd_lia \$0;
#X obj 304 280 pd_lia \$0;
#X obj 393 227 pd_lia \$0;
#X obj 475 227 pd_lia \$0;
#X obj 562 277 pd_lia \$0;
#X obj 604 358 pd_lia \$0;
#X obj 678 291 pd_lia \$0;
#X obj 604 221 pd_lia \$0;
#X obj 499 135 pd_lia \$0;
#X obj 571 43 pd_lia \$0;
#X obj 612 101 pd_lia \$0;
#X obj 749 179 pd_lia \$0;
#X obj 763 429 pd_lia \$0;
#X obj 671 510 pd_lia \$0;
#X obj 28 21 inlet;
#N canvas 0 22 450 300 lia 0;
#X obj 266 35 inlet;
#X obj 274 100 outlet;
#X obj 12 32 inlet;
#X obj 6 93 outlet;
#X obj 47 61 lia2D lia 0 10 10 0.001;
#X connect 0 0 4 1;
#X connect 2 0 4 0;
#X connect 4 0 3 0;
#X connect 4 1 1 0;
#X restore 28 52 pd lia;
#X obj 27 290 pd_masse -1 0 \$0;
#X obj 37 101 loadbang;
#X obj 554 253 bng 15 250 50 0 empty empty empty 0 -6 0 8 -262144 -1
-1;
#X obj 407 274 pd_masse 0 0 \$0;
#X obj 124 43 pd_masse -0.7 0.7 \$0;
#X obj 123 558 pd_masse -0.7 -0.7 \$0;
#X obj 399 624 pd_masse 0 -1 \$0;
#X obj 436 16 pd_masse 0 1 \$0;
#X obj 680 64 pd_masse 0.7 0.7 \$0;
#X obj 766 285 pd_masse 1 0 \$0;
#X obj 748 552 pd_masse 0.7 -0.7 \$0;
#X connect 0 0 38 0;
#X connect 0 1 39 0;
#X connect 1 0 38 0;
#X connect 1 1 40 0;
#X connect 2 0 34 0;
#X connect 2 1 39 0;
#X connect 3 0 34 0;
#X connect 3 1 40 0;
#X connect 4 0 34 0;
#X connect 4 1 41 0;
#X connect 5 0 34 0;
#X connect 5 1 38 0;
#X connect 6 0 41 0;
#X connect 6 1 39 0;
#X connect 7 0 39 0;
#X connect 7 1 40 0;
#X connect 8 0 39 0;
#X connect 8 1 44 0;
#X connect 9 0 40 0;
#X connect 9 1 44 0;
#X connect 10 0 39 0;
#X connect 10 1 37 0;
#X connect 11 0 37 0;
#X connect 11 1 40 0;
#X connect 12 0 37 0;
#X connect 12 1 44 0;
#X connect 13 0 34 0;
#X connect 13 1 44 0;
#X connect 14 0 39 0;
#X connect 14 1 43 0;
#X connect 15 0 38 0;
#X connect 15 1 41 0;
#X connect 16 0 38 0;
#X connect 16 1 42 0;
#X connect 17 0 34 0;
#X connect 17 1 42 0;
#X connect 18 0 38 0;
#X connect 18 1 37 0;
#X connect 19 0 34 0;
#X connect 19 1 37 0;
#X connect 20 0 37 0;
#X connect 20 1 41 0;
#X connect 21 0 37 0;
#X connect 21 1 42 0;
#X connect 22 0 37 0;
#X connect 22 1 43 0;
#X connect 23 0 40 0;
#X connect 23 1 42 0;
#X connect 24 0 44 0;
#X connect 24 1 42 0;
#X connect 25 0 41 0;
#X connect 25 1 44 0;
#X connect 26 0 38 0;
#X connect 26 1 43 0;
#X connect 27 0 41 0;
#X connect 27 1 42 0;
#X connect 28 0 41 0;
#X connect 28 1 43 0;
#X connect 29 0 42 0;
#X connect 29 1 43 0;
#X connect 30 0 43 0;
#X connect 30 1 44 0;
#X connect 31 0 40 0;
#X connect 31 1 43 0;
#X connect 32 0 33 0;
#X connect 33 1 37 0;
#X connect 34 0 2 0;
#X connect 34 0 3 0;
#X connect 34 0 4 0;
#X connect 34 0 5 0;
#X connect 34 0 13 0;
#X connect 34 0 17 0;
#X connect 34 0 19 0;
#X connect 35 0 37 1;
#X connect 36 0 37 1;
#X connect 37 0 10 1;
#X connect 37 0 11 0;
#X connect 37 0 12 0;
#X connect 37 0 18 1;
#X connect 37 0 19 1;
#X connect 37 0 20 0;
#X connect 37 0 21 0;
#X connect 37 0 22 0;
#X connect 37 0 33 1;
#X connect 38 0 0 0;
#X connect 38 0 1 0;
#X connect 38 0 5 1;
#X connect 38 0 15 0;
#X connect 38 0 16 0;
#X connect 38 0 18 0;
#X connect 38 0 26 0;
#X connect 39 0 0 1;
#X connect 39 0 2 1;
#X connect 39 0 6 1;
#X connect 39 0 7 0;
#X connect 39 0 8 0;
#X connect 39 0 10 0;
#X connect 39 0 14 0;
#X connect 40 0 1 1;
#X connect 40 0 3 1;
#X connect 40 0 7 1;
#X connect 40 0 9 0;
#X connect 40 0 11 1;
#X connect 40 0 23 0;
#X connect 40 0 31 0;
#X connect 41 0 4 1;
#X connect 41 0 6 0;
#X connect 41 0 15 1;
#X connect 41 0 20 1;
#X connect 41 0 25 0;
#X connect 41 0 27 0;
#X connect 41 0 28 0;
#X connect 42 0 16 1;
#X connect 42 0 17 1;
#X connect 42 0 21 1;
#X connect 42 0 23 1;
#X connect 42 0 24 1;
#X connect 42 0 27 1;
#X connect 42 0 29 0;
#X connect 43 0 14 1;
#X connect 43 0 22 1;
#X connect 43 0 26 1;
#X connect 43 0 28 1;
#X connect 43 0 29 1;
#X connect 43 0 30 0;
#X connect 43 0 31 1;
#X connect 44 0 8 1;
#X connect 44 0 9 1;
#X connect 44 0 12 1;
#X connect 44 0 13 1;
#X connect 44 0 24 0;
#X connect 44 0 25 1;
#X connect 44 0 30 1;
#X restore 43 510 pd structure;
#X obj 216 283 metro 50;
#X obj 59 547 loadbang;
#X obj 251 335 s \$0-lia;
#X msg 91 603 reset;
#X msg 65 655 resetL;
#X msg 40 681 resetF;
#X obj 40 575 t b b b;
#X text 227 414 ambient Force \, simulating gravity;
#X text 183 227 <- create Gem windows;
#X obj 40 712 s \$0-lia;
#X text 255 260 <- on / off;
#X text 455 589 <- send forces to the structure;
#X text 226 713 If the line does not display corectly \, you sould
upgrade GEM;
#X obj 41 424 square 3.9;
#X obj 41 367 gemhead 11;
#X obj 41 395 color 0 0.5 0;
#X msg 213 457 \; pd dsp 1 \;;
#X msg 295 456 \; pd dsp 0 \;;
#X text 240 175 Forces aply to a mass create sound.;
#X text 238 195 each masse got a diferent frequency;
#X msg 521 476 setK \$1;
#X msg 595 450 setD \$1;
#X msg 737 422 setM \$1;
#X floatatom 521 401 5 -10 200 0 - - -;
#X floatatom 595 399 5 0 0 0 - - -;
#X floatatom 737 399 5 0 0 0 - - -;
#X obj 521 450 / 10;
#X obj 521 424 + 1;
#X obj 595 423 / 10;
#X msg 521 374 100;
#X msg 595 375 25;
#X msg 737 373 50;
#X floatatom 662 399 5 0 0 0 - - -;
#X obj 662 423 / 10;
#X msg 662 450 setD2 \$1;
#X msg 662 375 1;
#X obj 521 508 s \$0-lia;
#X obj 737 450 s \$0-masse;
#X text 521 321 you can change physical properties;
#X text 519 346 this will change the sound;
#X floatatom 377 307 5 0 0 0 - - -;
#X msg 377 331 setFY \$1;
#N canvas 1085 696 450 300 gemmouse 0;
#X obj 31 26 gemmouse;
#X obj 31 57 / 62.5;
#X obj 31 80 - 4;
#X obj 31 133 pack f f;
#X msg 31 158 position2D \$1 \$2;
#X obj 155 109 spigot;
#X obj 152 82 r \$0-lia;
#X obj 154 135 s lia;
#X obj 66 83 / -62.5;
#X obj 66 106 + 4;
#X obj 32 193 outlet;
#X msg 253 159 position2D 200 100;
#X connect 0 0 1 0;
#X connect 0 1 8 0;
#X connect 0 2 5 1;
#X connect 1 0 2 0;
#X connect 2 0 3 0;
#X connect 3 0 4 0;
#X connect 4 0 10 0;
#X connect 5 0 7 0;
#X connect 6 0 5 0;
#X connect 8 0 9 0;
#X connect 9 0 3 1;
#X connect 11 0 10 0;
#X restore 43 483 pd gemmouse;
#X obj 216 363 s \$0-mass;
#X obj 278 390 iAmbient2D \$0-mass 0 -0.2;
#X obj 289 651 s \$0-mass;
#X obj 37 74 OSCroute /start /stop /u /d /l /r;
#X msg 288 565 force2D 0 20;
#X msg 344 591 force2D 20 0;
#X msg 233 592 force2D -20 0;
#X msg 290 619 force2D 0 -20;
#X obj 91 628 s \$0-mass;
#X obj 38 30 dumpOSC 57120;
#X connect 0 0 50 0;
#X connect 0 1 9 0;
#X connect 0 1 51 0;
#X connect 1 0 7 0;
#X connect 2 0 13 0;
#X connect 3 0 4 0;
#X connect 5 0 4 0;
#X connect 7 0 0 0;
#X connect 8 0 13 0;
#X connect 10 0 58 0;
#X connect 11 0 16 0;
#X connect 12 0 16 0;
#X connect 13 0 12 0;
#X connect 13 1 11 0;
#X connect 13 2 10 0;
#X connect 21 0 22 0;
#X connect 22 0 20 0;
#X connect 27 0 43 0;
#X connect 28 0 43 0;
#X connect 29 0 44 0;
#X connect 30 0 34 0;
#X connect 31 0 35 0;
#X connect 32 0 29 0;
#X connect 33 0 27 0;
#X connect 34 0 33 0;
#X connect 35 0 28 0;
#X connect 36 0 30 0;
#X connect 37 0 31 0;
#X connect 38 0 32 0;
#X connect 39 0 40 0;
#X connect 40 0 41 0;
#X connect 41 0 43 0;
#X connect 42 0 39 0;
#X connect 47 0 48 0;
#X connect 48 0 51 0;
#X connect 49 0 6 0;
#X connect 53 0 5 0;
#X connect 53 0 23 0;
#X connect 53 0 1 0;
#X connect 53 0 2 0;
#X connect 53 1 24 0;
#X connect 53 1 1 0;
#X connect 53 2 54 0;
#X connect 53 3 57 0;
#X connect 53 4 56 0;
#X connect 53 5 55 0;
#X connect 54 0 52 0;
#X connect 55 0 52 0;
#X connect 56 0 52 0;
#X connect 57 0 52 0;
#X connect 59 0 53 0;
